<svg xmlns="http://www.w3.org/2000/svg" viewBox="0 0 22 24" shape-rendering="crispEdges">
  <!-- Row 0: hood top -->
  <rect x="6" y="0" width="1" height="1" fill="#1a2b3c"/>
  <rect x="7" y="0" width="1" height="1" fill="#2a4058"/>
  <rect x="8" y="0" width="6" height="1" fill="#3e5c72"/>
  <rect x="14" y="0" width="1" height="1" fill="#1a2b3c"/>
  <!-- Row 1 -->
  <rect x="5" y="1" width="1" height="1" fill="#1a2b3c"/>
  <rect x="6" y="1" width="1" height="1" fill="#2a4058"/>
  <rect x="7" y="1" width="3" height="1" fill="#3e5c72"/>
  <rect x="10" y="1" width="5" height="1" fill="#2a4058"/>
  <rect x="15" y="1" width="1" height="1" fill="#1a2b3c"/>
  <!-- Row 2 -->
  <rect x="5" y="2" width="1" height="1" fill="#2a4058"/>
  <rect x="6" y="2" width="3" height="1" fill="#3e5c72"/>
  <rect x="9" y="2" width="1" height="1" fill="#1a2b3c"/>
  <rect x="10" y="2" width="4" height="1" fill="#0b1018"/>
  <rect x="14" y="2" width="2" height="1" fill="#2a4058"/>
  <!-- Row 3 -->
  <rect x="5" y="3" width="1" height="1" fill="#2a4058"/>
  <rect x="6" y="3" width="2" height="1" fill="#3e5c72"/>
  <rect x="8" y="3" width="1" height="1" fill="#2a4058"/>
  <rect x="9" y="3" width="6" height="1" fill="#0b1018"/>
  <rect x="15" y="3" width="2" height="1" fill="#2a4058"/>
  <!-- Row 4 -->
  <rect x="4" y="4" width="2" height="1" fill="#2a4058"/>
  <rect x="6" y="4" width="2" height="1" fill="#3e5c72"/>
  <rect x="8" y="4" width="1" height="1" fill="#2a4058"/>
  <rect x="9" y="4" width="6" height="1" fill="#0b1018"/>
  <rect x="15" y="4" width="2" height="1" fill="#2a4058"/>
  <!-- Row 5: eyes (iris) -->
  <rect x="4" y="5" width="3" height="1" fill="#2a4058"/>
  <rect x="7" y="5" width="1" height="1" fill="#3e5c72"/>
  <rect x="8" y="5" width="1" height="1" fill="#2a4058"/>
  <rect x="9" y="5" width="1" height="1" fill="#0b1018"/>
  <rect x="10" y="5" width="1" height="1" fill="#88b8cc"/>
  <rect x="11" y="5" width="2" height="1" fill="#0b1018"/>
  <rect x="13" y="5" width="1" height="1" fill="#88b8cc"/>
  <rect x="14" y="5" width="1" height="1" fill="#0b1018"/>
  <rect x="15" y="5" width="2" height="1" fill="#2a4058"/>
  <!-- Row 6: eyes (glow) -->
  <rect x="4" y="6" width="3" height="1" fill="#2a4058"/>
  <rect x="7" y="6" width="1" height="1" fill="#3e5c72"/>
  <rect x="8" y="6" width="1" height="1" fill="#2a4058"/>
  <rect x="9" y="6" width="1" height="1" fill="#0b1018"/>
  <rect x="10" y="6" width="1" height="1" fill="#cce8fa"/>
  <rect x="11" y="6" width="2" height="1" fill="#0b1018"/>
  <rect x="13" y="6" width="1" height="1" fill="#cce8fa"/>
  <rect x="14" y="6" width="1" height="1" fill="#0b1018"/>
  <rect x="15" y="6" width="2" height="1" fill="#2a4058"/>
  <!-- Row 7: eyes (iris repeat) -->
  <rect x="4" y="7" width="3" height="1" fill="#2a4058"/>
  <rect x="7" y="7" width="1" height="1" fill="#3e5c72"/>
  <rect x="8" y="7" width="1" height="1" fill="#2a4058"/>
  <rect x="9" y="7" width="1" height="1" fill="#0b1018"/>
  <rect x="10" y="7" width="1" height="1" fill="#88b8cc"/>
  <rect x="11" y="7" width="2" height="1" fill="#0b1018"/>
  <rect x="13" y="7" width="1" height="1" fill="#88b8cc"/>
  <rect x="14" y="7" width="1" height="1" fill="#0b1018"/>
  <rect x="15" y="7" width="2" height="1" fill="#2a4058"/>
  <!-- Row 8: lower face -->
  <rect x="5" y="8" width="3" height="1" fill="#2a4058"/>
  <rect x="8" y="8" width="1" height="1" fill="#3e5c72"/>
  <rect x="9" y="8" width="1" height="1" fill="#2a4058"/>
  <rect x="10" y="8" width="5" height="1" fill="#0b1018"/>
  <rect x="15" y="8" width="2" height="1" fill="#2a4058"/>
  <!-- Row 9: chin -->
  <rect x="6" y="9" width="1" height="1" fill="#1a2b3c"/>
  <rect x="7" y="9" width="4" height="1" fill="#2a4058"/>
  <rect x="11" y="9" width="3" height="1" fill="#0b1018"/>
  <rect x="14" y="9" width="2" height="1" fill="#2a4058"/>
  <!-- Row 10: neck -->
  <rect x="7" y="10" width="1" height="1" fill="#1a2b3c"/>
  <rect x="8" y="10" width="7" height="1" fill="#2a4058"/>
  <rect x="15" y="10" width="1" height="1" fill="#1a2b3c"/>
  <!-- Row 11: shoulders top -->
  <rect x="5" y="11" width="2" height="1" fill="#2a4058"/>
  <rect x="7" y="11" width="10" height="1" fill="#3e5c72"/>
  <!-- Row 12 -->
  <rect x="5" y="12" width="1" height="1" fill="#1a2b3c"/>
  <rect x="6" y="12" width="1" height="1" fill="#2a4058"/>
  <rect x="7" y="12" width="9" height="1" fill="#3e5c72"/>
  <rect x="16" y="12" width="1" height="1" fill="#2a4058"/>
  <!-- Row 13 -->
  <rect x="5" y="13" width="1" height="1" fill="#1a2b3c"/>
  <rect x="6" y="13" width="10" height="1" fill="#3e5c72"/>
  <rect x="16" y="13" width="1" height="1" fill="#2a4058"/>
  <!-- Row 14 -->
  <rect x="5" y="14" width="1" height="1" fill="#2a4058"/>
  <rect x="6" y="14" width="10" height="1" fill="#3e5c72"/>
  <rect x="16" y="14" width="1" height="1" fill="#2a4058"/>
  <!-- Row 15 -->
  <rect x="5" y="15" width="1" height="1" fill="#2a4058"/>
  <rect x="6" y="15" width="6" height="1" fill="#3e5c72"/>
  <rect x="12" y="15" width="1" height="1" fill="#2a4058"/>
  <rect x="13" y="15" width="4" height="1" fill="#3e5c72"/>
  <rect x="17" y="15" width="1" height="1" fill="#2a4058"/>
  <!-- Row 16 -->
  <rect x="5" y="16" width="1" height="1" fill="#2a4058"/>
  <rect x="6" y="16" width="6" height="1" fill="#3e5c72"/>
  <rect x="12" y="16" width="1" height="1" fill="#2a4058"/>
  <rect x="13" y="16" width="3" height="1" fill="#3e5c72"/>
  <rect x="16" y="16" width="2" height="1" fill="#2a4058"/>
  <!-- Row 17: robe hem -->
  <rect x="4" y="17" width="1" height="1" fill="#1a2b3c"/>
  <rect x="5" y="17" width="2" height="1" fill="#2a4058"/>
  <rect x="7" y="17" width="1" height="1" fill="#3e5c72"/>
  <rect x="8" y="17" width="1" height="1" fill="#2a4058"/>
  <rect x="9" y="17" width="1" height="1" fill="#3e5c72"/>
  <rect x="10" y="17" width="5" height="1" fill="#2a4058"/>
  <rect x="15" y="17" width="1" height="1" fill="#3e5c72"/>
  <rect x="16" y="17" width="2" height="1" fill="#2a4058"/>
  <!-- Row 18: robe fringe -->
  <rect x="5" y="18" width="1" height="1" fill="#2a4058"/>
  <rect x="6" y="18" width="1" height="1" fill="#1a2b3c"/>
  <rect x="7" y="18" width="1" height="1" fill="#2a4058"/>
  <rect x="8" y="18" width="1" height="1" fill="#1a2b3c"/>
  <rect x="9" y="18" width="1" height="1" fill="#2a4058"/>
  <rect x="10" y="18" width="3" height="1" fill="#1a2b3c"/>
  <rect x="13" y="18" width="1" height="1" fill="#2a4058"/>
  <rect x="14" y="18" width="1" height="1" fill="#1a2b3c"/>
  <rect x="15" y="18" width="2" height="1" fill="#2a4058"/>
  <!-- Row 19: ghostly tail start -->
  <rect x="5" y="19" width="1" height="1" fill="#2a4058" opacity="0.85"/>
  <rect x="6" y="19" width="1" height="1" fill="#1a2b3c" opacity="0.85"/>
  <rect x="8" y="19" width="1" height="1" fill="#1a2b3c" opacity="0.85"/>
  <rect x="14" y="19" width="1" height="1" fill="#1a2b3c" opacity="0.85"/>
  <rect x="15" y="19" width="1" height="1" fill="#2a4058" opacity="0.85"/>
  <!-- Row 20 -->
  <rect x="5" y="20" width="2" height="1" fill="#2a4058" opacity="0.6"/>
  <rect x="15" y="20" width="1" height="1" fill="#2a4058" opacity="0.6"/>
  <!-- Row 21 -->
  <rect x="5" y="21" width="1" height="1" fill="#1a2b3c" opacity="0.4"/>
  <rect x="6" y="21" width="1" height="1" fill="#2a4058" opacity="0.4"/>
  <rect x="15" y="21" width="1" height="1" fill="#1a2b3c" opacity="0.4"/>
  <!-- Row 22 -->
  <rect x="6" y="22" width="1" height="1" fill="#2a4058" opacity="0.2"/>
  <rect x="15" y="22" width="1" height="1" fill="#2a4058" opacity="0.2"/>
  <!-- Row 23: tail tip -->
  <rect x="6" y="23" width="1" height="1" fill="#1a2b3c" opacity="0.1"/>
</svg>
