<svg xmlns="http://www.w3.org/2000/svg" viewBox="0 0 32 32" shape-rendering="crispEdges">
  <!-- GRIM sprite favicon — brightened for visibility at 16x16 -->

  <!-- Dark background for contrast on any tab bar -->
  <rect x="0" y="0" width="32" height="32" rx="4" fill="#0d1117"/>

  <!-- Hood outline -->
  <rect x="8"  y="2" width="2" height="2" fill="#2d4a5e"/>
  <rect x="10" y="2" width="12" height="2" fill="#4e7a90"/>
  <rect x="22" y="2" width="2" height="2" fill="#2d4a5e"/>

  <rect x="6"  y="4" width="2" height="2" fill="#2d4a5e"/>
  <rect x="8"  y="4" width="4" height="2" fill="#4e7a90"/>
  <rect x="12" y="4" width="10" height="2" fill="#365a6e"/>
  <rect x="22" y="4" width="2" height="2" fill="#2d4a5e"/>

  <!-- Hood sides + face void -->
  <rect x="6"  y="6" width="2" height="2" fill="#365a6e"/>
  <rect x="8"  y="6" width="4" height="2" fill="#4e7a90"/>
  <rect x="12" y="6" width="2" height="2" fill="#2d4a5e"/>
  <rect x="14" y="6" width="8" height="2" fill="#10161e"/>
  <rect x="22" y="6" width="2" height="2" fill="#365a6e"/>

  <rect x="6"  y="8" width="4" height="2" fill="#365a6e"/>
  <rect x="10" y="8" width="2" height="2" fill="#4e7a90"/>
  <rect x="12" y="8" width="2" height="2" fill="#365a6e"/>
  <rect x="14" y="8" width="8" height="2" fill="#10161e"/>
  <rect x="22" y="8" width="2" height="2" fill="#365a6e"/>

  <!-- Eye row -->
  <rect x="6"  y="10" width="4" height="2" fill="#365a6e"/>
  <rect x="10" y="10" width="2" height="2" fill="#4e7a90"/>
  <rect x="12" y="10" width="2" height="2" fill="#365a6e"/>
  <rect x="14" y="10" width="2" height="2" fill="#10161e"/>
  <rect x="16" y="10" width="2" height="2" fill="#cce8fa"/>
  <rect x="18" y="10" width="2" height="2" fill="#10161e"/>
  <rect x="20" y="10" width="2" height="2" fill="#cce8fa"/>
  <rect x="22" y="10" width="2" height="2" fill="#10161e"/>
  <rect x="24" y="10" width="2" height="2" fill="#365a6e"/>

  <!-- Below eyes -->
  <rect x="8"  y="12" width="4" height="2" fill="#365a6e"/>
  <rect x="12" y="12" width="2" height="2" fill="#4e7a90"/>
  <rect x="14" y="12" width="2" height="2" fill="#365a6e"/>
  <rect x="16" y="12" width="6" height="2" fill="#10161e"/>
  <rect x="22" y="12" width="2" height="2" fill="#365a6e"/>

  <!-- Chin/neck -->
  <rect x="10" y="14" width="2" height="2" fill="#2d4a5e"/>
  <rect x="12" y="14" width="8" height="2" fill="#365a6e"/>
  <rect x="20" y="14" width="2" height="2" fill="#10161e"/>
  <rect x="22" y="14" width="2" height="2" fill="#365a6e"/>

  <!-- Robe body -->
  <rect x="6"  y="16" width="4" height="2" fill="#365a6e"/>
  <rect x="10" y="16" width="14" height="2" fill="#4e7a90"/>
  <rect x="24" y="16" width="2" height="2" fill="#365a6e"/>

  <rect x="6"  y="18" width="2" height="2" fill="#2d4a5e"/>
  <rect x="8"  y="18" width="2" height="2" fill="#365a6e"/>
  <rect x="10" y="18" width="14" height="2" fill="#4e7a90"/>
  <rect x="24" y="18" width="2" height="2" fill="#365a6e"/>

  <rect x="6"  y="20" width="2" height="2" fill="#365a6e"/>
  <rect x="8"  y="20" width="16" height="2" fill="#4e7a90"/>
  <rect x="24" y="20" width="2" height="2" fill="#365a6e"/>

  <!-- Robe hem -->
  <rect x="6"  y="22" width="2" height="2" fill="#365a6e"/>
  <rect x="8"  y="22" width="2" height="2" fill="#4e7a90"/>
  <rect x="10" y="22" width="2" height="2" fill="#365a6e"/>
  <rect x="12" y="22" width="2" height="2" fill="#4e7a90"/>
  <rect x="14" y="22" width="6" height="2" fill="#365a6e"/>
  <rect x="20" y="22" width="2" height="2" fill="#4e7a90"/>
  <rect x="22" y="22" width="2" height="2" fill="#365a6e"/>

  <!-- Ghost tail (fading) -->
  <rect x="8"  y="24" width="2" height="2" fill="#365a6e" opacity="0.7"/>
  <rect x="10" y="24" width="2" height="2" fill="#2d4a5e" opacity="0.7"/>
  <rect x="20" y="24" width="2" height="2" fill="#2d4a5e" opacity="0.7"/>
  <rect x="22" y="24" width="2" height="2" fill="#365a6e" opacity="0.7"/>

  <rect x="8"  y="26" width="2" height="2" fill="#365a6e" opacity="0.4"/>
  <rect x="22" y="26" width="2" height="2" fill="#365a6e" opacity="0.4"/>

  <rect x="8"  y="28" width="2" height="2" fill="#2d4a5e" opacity="0.2"/>
</svg>
